HIERARCHY
ROOT Hips
{
	OFFSET 0.053599 88.859886 3.107447
	CHANNELS 6 Xposition Yposition Zposition Zrotation Yrotation Xrotation 
	JOINT Spine
	{
		OFFSET -0.000000 8.814246 -2.080107
		CHANNELS 3 Zrotation Yrotation Xrotation
		JOINT Spine1
		{
			OFFSET 0.000000 8.844141 0.000000
			CHANNELS 3 Zrotation Yrotation Xrotation
			JOINT Spine2
			{
				OFFSET -0.000000 11.682268 0.000000
				CHANNELS 3 Zrotation Yrotation Xrotation
				JOINT Spine3
				{
					OFFSET 0.000000 11.746700 0.000000
					CHANNELS 3 Zrotation Yrotation Xrotation
					JOINT Neck
					{
						OFFSET -0.000000 17.658264 -0.000000
						CHANNELS 3 Zrotation Yrotation Xrotation
						JOINT Neck1
						{
							OFFSET -0.000000 5.101515 -0.000000
							CHANNELS 3 Zrotation Yrotation Xrotation
							JOINT Head
							{
								OFFSET 0.000000 5.101515 0.000000
								CHANNELS 3 Zrotation Yrotation Xrotation
								JOINT HeadEnd
								{
									OFFSET 0.000000 11.655085 0.000000
									CHANNELS 3 Zrotation Yrotation Xrotation
									End Site
									{
										OFFSET 0.000000 0.000000 0.000000
									}
								}
							}
						}
					}
					JOINT RightShoulder
					{
						OFFSET -2.625389 11.175210 0.000000
						CHANNELS 3 Zrotation Yrotation Xrotation
						JOINT RightArm
						{
							OFFSET -0.000000 10.434715 -0.000000
							CHANNELS 3 Zrotation Yrotation Xrotation
							JOINT RightForeArm
							{
								OFFSET -0.000000 29.628420 0.000000
								CHANNELS 3 Zrotation Yrotation Xrotation
								JOINT RightHand
								{
									OFFSET -0.000000 22.857611 0.000000
									CHANNELS 3 Zrotation Yrotation Xrotation
									JOINT RightHandThumb1
									{
										OFFSET -2.867323 3.959563 2.944291
										CHANNELS 3 Zrotation Yrotation Xrotation
										JOINT RightHandThumb2
										{
											OFFSET 0.000000 3.350399 0.000000
											CHANNELS 3 Zrotation Yrotation Xrotation
											JOINT RightHandThumb3
											{
												OFFSET 0.000000 3.756509 -0.000000
												CHANNELS 3 Zrotation Yrotation Xrotation
												JOINT RightHandThumb4
												{
													OFFSET 0.000000 3.147345 0.000000
													CHANNELS 3 Zrotation Yrotation Xrotation
													End Site
													{
														OFFSET 0.000000 0.000000 0.000000
													}
												}
											}
										}
									}
									JOINT RightHandIndex1
									{
										OFFSET -0.086752 10.030893 2.345280
										CHANNELS 3 Zrotation Yrotation Xrotation
										JOINT RightHandIndex2
										{
											OFFSET -0.000000 4.061090 0.000000
											CHANNELS 3 Zrotation Yrotation Xrotation
											JOINT RightHandIndex3
											{
												OFFSET -0.000000 3.248873 0.000000
												CHANNELS 3 Zrotation Yrotation Xrotation
												JOINT RightHandIndex4
												{
													OFFSET 0.000000 2.639709 -0.000000
													CHANNELS 3 Zrotation Yrotation Xrotation
													End Site
													{
														OFFSET 0.000000 0.000000 0.000000
													}
												}
											}
										}
									}
									JOINT RightHandMiddle1
									{
										OFFSET 0.104102 9.502952 0.006768
										CHANNELS 3 Zrotation Yrotation Xrotation
										JOINT RightHandMiddle2
										{
											OFFSET 0.000000 4.568727 0.000000
											CHANNELS 3 Zrotation Yrotation Xrotation
											JOINT RightHandMiddle3
											{
												OFFSET 0.000000 3.654981 -0.000000
												CHANNELS 3 Zrotation Yrotation Xrotation
												JOINT RightHandMiddle4
												{
													OFFSET -0.000000 2.741236 -0.000000
													CHANNELS 3 Zrotation Yrotation Xrotation
													End Site
													{
														OFFSET 0.000000 0.000000 0.000000
													}
												}
											}
										}
									}
									JOINT RightHandRing1
									{
										OFFSET 0.086752 8.921708 -2.267442
										CHANNELS 3 Zrotation Yrotation Xrotation
										JOINT RightHandRing2
										{
											OFFSET -0.000000 4.061090 0.000000
											CHANNELS 3 Zrotation Yrotation Xrotation
											JOINT RightHandRing3
											{
												OFFSET 0.000000 3.654981 -0.000000
												CHANNELS 3 Zrotation Yrotation Xrotation
												JOINT RightHandRing4
												{
													OFFSET 0.000000 2.741236 -0.000000
													CHANNELS 3 Zrotation Yrotation Xrotation
													End Site
													{
														OFFSET 0.000000 0.000000 0.000000
													}
												}
											}
										}
									}
									JOINT RightHandPinky1
									{
										OFFSET -0.173504 7.976997 -4.467199
										CHANNELS 3 Zrotation Yrotation Xrotation
										JOINT RightHandPinky2
										{
											OFFSET 0.000000 3.350399 -0.000000
											CHANNELS 3 Zrotation Yrotation Xrotation
											JOINT RightHandPinky3
											{
												OFFSET -0.000000 2.842763 0.000000
												CHANNELS 3 Zrotation Yrotation Xrotation
												JOINT RightHandPinky4
												{
													OFFSET -0.000000 2.639709 0.000000
													CHANNELS 3 Zrotation Yrotation Xrotation
													End Site
													{
														OFFSET 0.000000 0.000000 0.000000
													}
												}
											}
										}
									}
									JOINT RightForeArmEnd
									{
										OFFSET 0.000000 0.000000 0.000000
										CHANNELS 3 Zrotation Yrotation Xrotation
										End Site
										{
											OFFSET 0.000000 0.000000 0.000000
										}
									}
								}
								JOINT RightArmEnd
								{
									OFFSET 0.000000 0.000000 0.000000
									CHANNELS 3 Zrotation Yrotation Xrotation
									End Site
									{
										OFFSET 0.000000 0.000000 0.000000
									}
								}
							}
						}
					}
					JOINT LeftShoulder
					{
						OFFSET 2.625389 11.175210 0.000000
						CHANNELS 3 Zrotation Yrotation Xrotation
						JOINT LeftArm
						{
							OFFSET 0.000000 10.813635 -0.000000
							CHANNELS 3 Zrotation Yrotation Xrotation
							JOINT LeftForeArm
							{
								OFFSET 0.000000 28.724781 0.000000
								CHANNELS 3 Zrotation Yrotation Xrotation
								JOINT LeftHand
								{
									OFFSET 0.644384 25.716167 -0.328871
									CHANNELS 3 Zrotation Yrotation Xrotation
									JOINT LeftHandThumb1
									{
										OFFSET 2.867323 3.959563 2.944291
										CHANNELS 3 Zrotation Yrotation Xrotation
										JOINT LeftHandThumb2
										{
											OFFSET 0.000000 3.350399 0.000000
											CHANNELS 3 Zrotation Yrotation Xrotation
											JOINT LeftHandThumb3
											{
												OFFSET -0.000000 3.756509 0.000000
												CHANNELS 3 Zrotation Yrotation Xrotation
												JOINT LeftHandThumb4
												{
													OFFSET -0.000000 3.100000 0.000000
													CHANNELS 3 Zrotation Yrotation Xrotation
													End Site
													{
														OFFSET 0.000000 0.000000 0.000000
													}
												}
											}
										}
									}
									JOINT LeftHandIndex1
									{
										OFFSET 0.086752 10.030893 2.345280
										CHANNELS 3 Zrotation Yrotation Xrotation
										JOINT LeftHandIndex2
										{
											OFFSET -0.000000 4.061090 -0.000000
											CHANNELS 3 Zrotation Yrotation Xrotation
											JOINT LeftHandIndex3
											{
												OFFSET 0.000000 3.248873 -0.000000
												CHANNELS 3 Zrotation Yrotation Xrotation
												JOINT LeftHandIndex4
												{
													OFFSET 0.000000 2.639709 -0.000000
													CHANNELS 3 Zrotation Yrotation Xrotation
													End Site
													{
														OFFSET 0.000000 0.000000 0.000000
													}
												}
											}
										}
									}
									JOINT LeftHandMiddle1
									{
										OFFSET -0.104102 9.502952 0.006768
										CHANNELS 3 Zrotation Yrotation Xrotation
										JOINT LeftHandMiddle2
										{
											OFFSET -0.000000 4.568727 -0.000000
											CHANNELS 3 Zrotation Yrotation Xrotation
											JOINT LeftHandMiddle3
											{
												OFFSET 0.000000 3.654981 0.000000
												CHANNELS 3 Zrotation Yrotation Xrotation
												JOINT LeftHandMiddle4
												{
													OFFSET 0.000000 2.741236 -0.000000
													CHANNELS 3 Zrotation Yrotation Xrotation
													End Site
													{
														OFFSET 0.000000 0.000000 0.000000
													}
												}
											}
										}
									}
									JOINT LeftHandRing1
									{
										OFFSET -0.086752 8.921708 -2.267442
										CHANNELS 3 Zrotation Yrotation Xrotation
										JOINT LeftHandRing2
										{
											OFFSET 0.000000 4.061090 0.000000
											CHANNELS 3 Zrotation Yrotation Xrotation
											JOINT LeftHandRing3
											{
												OFFSET 0.000000 3.654981 0.000000
												CHANNELS 3 Zrotation Yrotation Xrotation
												JOINT LeftHandRing4
												{
													OFFSET 0.000000 2.741236 0.000000
													CHANNELS 3 Zrotation Yrotation Xrotation
													End Site
													{
														OFFSET 0.000000 0.000000 0.000000
													}
												}
											}
										}
									}
									JOINT LeftHandPinky1
									{
										OFFSET 0.173504 7.976997 -4.467199
										CHANNELS 3 Zrotation Yrotation Xrotation
										JOINT LeftHandPinky2
										{
											OFFSET -0.000000 3.350399 -0.000000
											CHANNELS 3 Zrotation Yrotation Xrotation
											JOINT LeftHandPinky3
											{
												OFFSET 0.000000 2.842763 0.000000
												CHANNELS 3 Zrotation Yrotation Xrotation
												JOINT LeftHandPinky4
												{
													OFFSET -0.000000 2.639709 -0.000000
													CHANNELS 3 Zrotation Yrotation Xrotation
													End Site
													{
														OFFSET 0.000000 0.000000 0.000000
													}
												}
											}
										}
									}
									JOINT LeftForeArmEnd
									{
										OFFSET 0.000000 0.000000 0.000000
										CHANNELS 3 Zrotation Yrotation Xrotation
										End Site
										{
											OFFSET 0.000000 0.000000 0.000000
										}
									}
								}
								JOINT LeftArmEnd
								{
									OFFSET 0.000000 0.000000 0.000000
									CHANNELS 3 Zrotation Yrotation Xrotation
									End Site
									{
										OFFSET 0.000000 0.000000 0.000000
									}
								}
							}
						}
					}
				}
			}
		}
	}
	JOINT RightUpLeg
	{
		OFFSET -11.289943 0.000000 0.000000
		CHANNELS 3 Zrotation Yrotation Xrotation
		JOINT RightLeg
		{
			OFFSET 0.000000 -38.200325 0.000000
			CHANNELS 3 Zrotation Yrotation Xrotation
			JOINT RightFoot
			{
				OFFSET -0.000000 -39.900856 -0.000000
				CHANNELS 3 Zrotation Yrotation Xrotation
				JOINT RightToeBase
				{
					OFFSET 0.000000 0.000000 15.261641
					CHANNELS 3 Zrotation Yrotation Xrotation
					JOINT RightToeBaseEnd
					{
						OFFSET 0.000000 0.000000 7.370709
						CHANNELS 3 Zrotation Yrotation Xrotation
						End Site
						{
							OFFSET 0.000000 0.000000 0.000000
						}
					}
				}
				JOINT RightLegEnd
				{
					OFFSET 0.000000 0.000000 0.000000
					CHANNELS 3 Zrotation Yrotation Xrotation
					End Site
					{
						OFFSET 0.000000 0.000000 0.000000
					}
				}
			}
			JOINT RightUpLegEnd
			{
				OFFSET 0.000000 0.000000 0.000000
				CHANNELS 3 Zrotation Yrotation Xrotation
				End Site
				{
					OFFSET 0.000000 0.000000 0.000000
				}
			}
		}
	}
	JOINT LeftUpLeg
	{
		OFFSET 11.315661 -0.000000 0.000000
		CHANNELS 3 Zrotation Yrotation Xrotation
		JOINT LeftLeg
		{
			OFFSET -0.000000 -38.200325 -0.000000
			CHANNELS 3 Zrotation Yrotation Xrotation
			JOINT LeftFoot
			{
				OFFSET 0.000000 -39.900856 -0.000000
				CHANNELS 3 Zrotation Yrotation Xrotation
				JOINT LeftToeBase
				{
					OFFSET -0.000000 -0.000000 15.261641
					CHANNELS 3 Zrotation Yrotation Xrotation
					JOINT LeftToeBaseEnd
					{
						OFFSET 0.000000 -0.000000 7.539996
						CHANNELS 3 Zrotation Yrotation Xrotation
						End Site
						{
							OFFSET 0.000000 0.000000 0.000000
						}
					}
				}
				JOINT LeftLegEnd
				{
					OFFSET 0.000000 0.000000 0.000000
					CHANNELS 3 Zrotation Yrotation Xrotation
					End Site
					{
						OFFSET 0.000000 0.000000 0.000000
					}
				}
			}
			JOINT LeftUpLegEnd
			{
				OFFSET 0.000000 0.000000 0.000000
				CHANNELS 3 Zrotation Yrotation Xrotation
				End Site
				{
					OFFSET 0.000000 0.000000 0.000000
				}
			}
		}
	}
}
MOTION
Frames: 4
Frame Time: 0.016667
0.665206 88.768875 3.355334 -0.370948 -1.783726 -10.181271 1.189118 0.128660 6.841741 -0.829605 0.270308 2.331213 0.275743 -0.729623 4.072321 -1.124566 0.228362 3.848920 0.113557 1.201928 3.506698 0.203137 1.204628 -3.858039 -0.603864 -0.898748 -20.016590 0.000000 0.000000 0.000000 92.353912 -0.307610 10.081932 66.732666 -24.939150 5.205673 -0.211961 18.038374 31.201992 2.239446 12.764080 -3.649457 19.395426 30.266397 62.536068 -7.872255 -11.310069 -19.109798 -5.857863 -7.438346 -13.224938 0.000000 0.000000 0.000000 8.949134 -10.572417 4.088151 8.563703 0.407923 1.200552 8.311485 -0.033880 1.146514 0.000000 0.000000 0.000000 8.294006 -4.965742 1.935198 7.124032 0.463044 0.458228 7.759324 -0.031605 0.391334 0.000000 0.000000 0.000000 8.362007 3.037404 0.258864 7.266709 -0.955750 -0.699562 7.318865 0.016610 -0.490614 0.000000 0.000000 0.000000 6.894143 11.614040 -2.297350 6.433569 -1.832863 -2.071905 6.486075 0.134072 -1.729072 0.000000 0.000000 0.000000 0.000000 0.000000 0.000000 0.000000 0.000000 0.000000 -89.552658 0.101593 5.305924 -71.825584 13.842358 -4.533408 -0.537556 -13.349767 51.953598 -1.330923 -19.332071 -11.271791 -19.005556 -30.382067 62.779667 7.609233 10.532456 -18.146757 5.593956 7.108060 -12.661210 0.000000 0.000000 0.000000 -11.672957 -6.919769 6.759923 -7.904532 0.427069 -0.973491 -7.652256 -0.038918 -0.966595 0.000000 0.000000 0.000000 -10.896558 -1.691248 3.449501 -7.630512 0.462168 -0.435895 -7.707557 -0.032469 -0.350772 0.000000 0.000000 0.000000 -13.618279 6.608420 -0.033348 -8.951557 -0.959334 0.716534 -9.166273 0.032256 0.547584 0.000000 0.000000 0.000000 -15.904782 15.482083 -4.360947 -10.066284 -1.836594 2.357027 -9.769324 0.213931 2.069155 0.000000 0.000000 0.000000 0.000000 0.000000 0.000000 0.000000 0.000000 0.000000 -0.846313 -8.817099 13.965241 -0.076250 -0.706484 5.431458 -2.309164 -6.948687 17.685427 -0.833175 0.839777 -18.399593 0.000000 0.000000 0.000000 0.000000 0.000000 0.000000 0.000000 0.000000 0.000000 -1.438526 -5.470781 9.402737 0.065095 0.306884 10.102846 3.985199 0.268564 16.607712 0.376846 -0.419001 -20.727554 0.000000 0.000000 0.000000 0.000000 0.000000 0.000000 0.000000 0.000000 0.000000 
0.660626 88.764084 3.365347 -0.373100 -1.774861 -10.252637 1.185649 0.131259 6.867000 -0.824344 0.274845 2.348914 0.272162 -0.713702 4.107331 -1.126969 0.234106 3.876422 0.105596 1.185623 3.586230 0.206304 1.185663 -3.830355 -0.599893 -0.909055 -20.019537 0.000000 0.000000 0.000000 92.389389 -0.316194 10.096516 66.728249 -24.849882 5.233005 -0.202756 17.982708 31.072924 2.251731 12.619000 -3.763626 19.309788 30.294981 62.623295 -7.777205 -11.142678 -18.849192 -5.782506 -7.327179 -13.041640 0.000000 0.000000 0.000000 8.339690 -10.480661 4.291797 8.265738 0.417668 1.166412 8.010815 -0.024724 1.114848 0.000000 0.000000 0.000000 7.726742 -4.869434 2.054995 6.818682 0.466972 0.444202 7.456276 -0.028377 0.379477 0.000000 0.000000 0.000000 7.871697 3.129405 0.284470 6.961751 -0.960820 -0.683356 7.007256 0.012973 -0.477187 0.000000 0.000000 0.000000 6.468776 11.688725 -2.359630 6.158151 -1.846441 -2.028988 6.211099 0.123076 -1.691350 0.000000 0.000000 0.000000 0.000000 0.000000 0.000000 0.000000 0.000000 0.000000 -89.587921 0.111336 5.294763 -71.814331 13.761616 -4.504837 -0.535972 -13.301858 52.039680 -1.333080 -19.232662 -11.284045 -18.823820 -30.436644 62.953754 7.427735 10.184591 -17.610365 5.445729 6.877431 -12.289459 0.000000 0.000000 0.000000 -10.427478 -7.152075 7.243855 -7.193722 0.433500 -0.956969 -6.945943 -0.032769 -0.951285 0.000000 0.000000 0.000000 -9.731628 -1.900467 3.754481 -6.920422 0.464867 -0.428458 -6.997745 -0.029925 -0.344811 0.000000 0.000000 0.000000 -12.534261 6.423270 0.035018 -8.238090 -0.963719 0.706391 -8.454347 0.029047 0.539745 0.000000 0.000000 0.000000 -14.976315 15.343447 -4.517089 -9.446221 -1.848101 2.337704 -9.151745 0.204484 2.051672 0.000000 0.000000 0.000000 0.000000 0.000000 0.000000 0.000000 0.000000 0.000000 -0.850544 -8.830866 14.041883 -0.076805 -0.709528 5.413594 -2.308183 -6.935301 17.662748 -0.834760 0.842949 -18.380697 0.000000 0.000000 0.000000 0.000000 0.000000 0.000000 0.000000 0.000000 0.000000 -1.423845 -5.466775 9.476628 0.065291 0.308167 10.123609 3.976653 0.257424 16.573330 0.374977 -0.422598 -20.715965 0.000000 0.000000 0.000000 0.000000 0.000000 0.000000 0.000000 0.000000 0.000000 
0.655580 88.758751 3.376628 -0.375120 -1.770808 -10.324337 1.183843 0.132738 6.893413 -0.820629 0.279032 2.364914 0.273395 -0.703745 4.141200 -1.130149 0.239104 3.906175 0.095398 1.171909 3.662175 0.209180 1.172490 -3.804216 -0.597666 -0.917886 -20.025455 0.000000 0.000000 0.000000 92.423225 -0.328289 10.107690 66.719170 -24.777304 5.238546 -0.195237 17.920795 30.960115 2.279052 12.401551 -3.894536 19.205812 30.328428 62.726261 -7.665670 -10.939858 -18.537722 -5.693081 -7.192822 -12.821614 0.000000 0.000000 0.000000 7.613205 -10.365767 4.530862 7.894340 0.427413 1.128062 7.636842 -0.015459 1.079330 0.000000 0.000000 0.000000 7.050621 -4.752649 2.194696 6.440336 0.470877 0.428953 7.081715 -0.025087 0.366444 0.000000 0.000000 0.000000 7.289309 3.237000 0.311662 6.586126 -0.965739 -0.665087 6.625833 0.009296 -0.462236 0.000000 0.000000 0.000000 5.965280 11.773941 -2.439744 5.821749 -1.859845 -1.978996 5.875018 0.112000 -1.648172 0.000000 0.000000 0.000000 0.000000 0.000000 0.000000 0.000000 0.000000 0.000000 -89.626244 0.122398 5.287254 -71.811020 13.689968 -4.480849 -0.534399 -13.249883 52.115749 -1.325158 -19.084328 -11.321079 -18.622820 -30.497414 63.147396 7.223918 9.798862 -17.014477 5.280716 6.622309 -11.875247 0.000000 0.000000 0.000000 -9.036883 -7.409208 7.768923 -6.412441 0.439014 -0.941872 -6.169301 -0.027390 -0.937388 0.000000 0.000000 0.000000 -8.421857 -2.135140 4.084479 -6.142277 0.467317 -0.421521 -6.218208 -0.027488 -0.339186 0.000000 0.000000 0.000000 -11.309719 6.212442 0.111390 -7.452855 -0.967489 0.696434 -7.670578 0.026130 0.531836 0.000000 0.000000 0.000000 -13.919837 15.183597 -4.681281 -8.763996 -1.857998 2.318252 -8.468850 0.196247 2.034296 0.000000 0.000000 0.000000 0.000000 0.000000 0.000000 0.000000 0.000000 0.000000 -0.851244 -8.838696 14.111442 -0.077460 -0.712428 5.408972 -2.307870 -6.927128 17.639036 -0.836639 0.846372 -18.365219 0.000000 0.000000 0.000000 0.000000 0.000000 0.000000 0.000000 0.000000 0.000000 -1.409039 -5.464497 9.548952 0.065276 0.309079 10.146897 3.965907 0.244566 16.538963 0.372292 -0.426416 -20.703772 0.000000 0.000000 0.000000 0.000000 0.000000 0.000000 0.000000 0.000000 0.000000 
0.650422 88.753624 3.388486 -0.376991 -1.772255 -10.393112 1.183716 0.133203 6.919030 -0.820429 0.283391 2.377992 0.279160 -0.700476 4.174536 -1.133829 0.242658 3.938050 0.085916 1.155854 3.731710 0.212706 1.161101 -3.777627 -0.595837 -0.925977 -20.033396 0.000000 0.000000 0.000000 92.453758 -0.343758 10.115401 66.712708 -24.719543 5.227300 -0.189622 17.854826 30.868795 2.304818 12.124363 -4.037910 19.085459 30.366453 62.842812 -7.538775 -10.705712 -18.180687 -5.590748 -7.038397 -12.569144 0.000000 0.000000 0.000000 6.778730 -10.228819 4.816546 7.453041 0.437387 1.085379 7.193172 -0.005835 1.039936 0.000000 0.000000 0.000000 6.273485 -4.616751 2.362644 5.993823 0.474873 0.412348 6.639637 -0.021638 0.352148 0.000000 0.000000 0.000000 6.615994 3.359934 0.346091 6.144412 -0.970851 -0.644549 6.179687 0.005400 -0.445596 0.000000 0.000000 0.000000 5.380143 11.871444 -2.534233 5.430039 -1.873641 -1.921319 5.483497 0.100379 -1.599125 0.000000 0.000000 0.000000 0.000000 0.000000 0.000000 0.000000 0.000000 0.000000 -89.663887 0.134414 5.280231 -71.813751 13.623940 -4.467651 -0.530903 -13.196422 52.203018 -1.305395 -18.897566 -11.370949 -18.403444 -30.564409 63.359673 6.998371 9.377092 -16.362154 5.099248 6.343677 -11.420601 0.000000 0.000000 0.000000 -7.510347 -7.689272 8.350751 -5.571551 0.444281 -0.925671 -5.332339 -0.022113 -0.922630 0.000000 0.000000 0.000000 -6.975442 -2.394224 4.452638 -5.307499 0.469779 -0.413893 -5.380541 -0.024922 -0.333002 0.000000 0.000000 0.000000 -9.947665 5.975980 0.206960 -6.607804 -0.971101 0.685202 -6.826483 0.023148 0.522754 0.000000 0.000000 0.000000 -12.735282 15.002275 -4.847050 -8.028769 -1.867631 2.294203 -7.729930 0.188064 2.013505 0.000000 0.000000 0.000000 0.000000 0.000000 0.000000 0.000000 0.000000 0.000000 -0.847466 -8.840190 14.171454 -0.078187 -0.714955 5.414371 -2.308889 -6.921071 17.616447 -0.838302 0.849850 -18.353991 0.000000 0.000000 0.000000 0.000000 0.000000 0.000000 0.000000 0.000000 0.000000 -1.394151 -5.462691 9.617123 0.064988 0.309235 10.170842 3.954727 0.229888 16.507694 0.368960 -0.429864 -20.692762 0.000000 0.000000 0.000000 0.000000 0.000000 0.000000 0.000000 0.000000 0.000000 
